{"title":"Pitbull Ft. Chris Brown - InternationalLove (Premios Lo Nuestro ","uid":7060117,"size":132934873,"categoryP":"video","categoryS":"music_videos","magnet":"?xt=urn:btih:79e3ba97af61fd2c8736ae1907247ec67bb2c0f0&amp;dn=Pitbull+Ft.+Chris+Brown+-+InternationalLove+%28Premios+Lo+Nuestro+&amp;tr=udp%3A%2F%2Ftracker.openbittorrent.com%3A80&amp;tr=udp%3A%2F%2Fopen.demonii.com%3A1337&amp;tr=udp%3A%2F%2Ftracker.coppersurfer.tk%3A6969&amp;tr=udp%3A%2F%2Fexodus.desync.com%3A6969","seeders":1,"leechers":0,"uploader":"MusicVideos-HQ","files":1,"time":1330318449,"description":"General\n\nFormat                           : MPEG-4\nFormat profile                   : Base Media\nCodec ID                         : isom\nFile size                        : 127 MiB\nDuration                         : 4mn 19s\nOverall bit rate                 : 4 102 Kbps\nEncoded date                     : UTC 2012-02-26 17:34:00\nTagged date                      : UTC 2012-02-26 17:34:00\n\nVideo\nID                               : 1\nFormat                           : AVC\nFormat/Info                      : Advanced Video Codec\nFormat profile                   : &lt;a class=&quot;__cf_email__&quot; href=&quot;/cdn-cgi/l/email-protection&quot; data-cfemail=&quot;1058797778505c233e20&quot;&gt;[email&amp;#160;protected]&lt;/a&gt;&lt;script cf-hash='f9e31' type=&quot;text/javascript&quot;&gt;\n/* &lt;![CDATA[ */!function(){try{var t=&quot;currentScript&quot;in document?document.currentScript:function(){for(var t=document.getElementsByTagName(&quot;script&quot;),e=t.length;e--;)if(t[e].getAttribute(&quot;cf-hash&quot;))return t[e]}();if(t&amp;&amp;t.previousSibling){var e,r,n,i,c=t.previousSibling,a=c.getAttribute(&quot;data-cfemail&quot;);if(a){for(e=&quot;&quot;,r=parseInt(a.substr(0,2),16),n=2;a.length-n;n+=2)i=parseInt(a.substr(n,2),16)^r,e+=String.fromCharCode(i);e=document.createTextNode(e),c.parentNode.replaceChild(e,c)}}}catch(u){}}();/* ]]&gt; */&lt;/script&gt;\nFormat settings, CABAC           : Yes\nFormat settings, ReFrames        : 2 frames\nCodec ID                         : avc1\nCodec ID/Info                    : Advanced Video Coding\nDuration                         : 4mn 19s\nBit rate mode                    : Variable\nBit rate                         : 4 147 Kbps\nMaximum bit rate                 : 8 140 Kbps\nWidth                            : 640 pixels\nHeight                           : 480 pixels\nDisplay aspect ratio             : 4:3\nFrame rate mode                  : Constant\nFrame rate                       : 29.970 fps\nColor space                      : YUV\nChroma subsampling               : 4:2:0\nBit depth                        : 8 bits\nScan type                        : Progressive\nBits/(Pixel*Frame)               : 0.450\nStream size                      : 125 MiB (98%)\n\n\nAudio\nID                               : 2\nFormat                           : AAC\nFormat/Info                      : Advanced Audio Codec\nFormat profile                   : LC\nCodec ID                         : 40\nDuration                         : 4mn 19s\nBit rate mode                    : Variable\nBit rate                         : 59.4 Kbps\nMaximum bit rate                 : 65.8 Kbps\nChannel(s)                       : 2 channels\nChannel positions                : Front: L R\nSampling rate                    : 44.1 KHz\nCompression mode                 : Lossy\nStream size                      : 1.83 MiB (1%)\n","torrent":{"xt":"urn:btih:79e3ba97af61fd2c8736ae1907247ec67bb2c0f0","amp;dn":"Pitbull+Ft.+Chris+Brown+-+InternationalLove+%28Premios+Lo+Nuestro+","amp;tr":["udp%3A%2F%2Ftracker.openbittorrent.com%3A80","udp%3A%2F%2Fopen.demonii.com%3A1337","udp%3A%2F%2Ftracker.coppersurfer.tk%3A6969","udp%3A%2F%2Fexodus.desync.com%3A6969"],"infoHash":"79e3ba97af61fd2c8736ae1907247ec67bb2c0f0","infoHashBuffer":{"type":"Buffer","data":[121,227,186,151,175,97,253,44,135,54,174,25,7,36,126,198,123,178,192,240]},"announce":[],"urlList":[]}}